<!--?xml version="1.0" standalone="no"?-->
<svg id="sw-js-blob-svg" viewBox="0 0 100 100" xmlns="http://www.w3.org/2000/svg" version="1.1">
    <defs> 
        <linearGradient id="sw-gradient" x1="0" x2="1" y1="1" y2="0">
            <stop id="stop1" stop-color="rgba(13, 110, 253, 1)" offset="0%"></stop>
            <stop id="stop2" stop-color="rgba(13, 110, 253, 1)" offset="100%"></stop>
        </linearGradient>
    </defs>
    <path fill="url(#sw-gradient)" d="M22.7,-31.3C29.5,-26.3,35.1,-19.8,37.7,-12.2C40.2,-4.6,39.6,4,36.7,11.6C33.8,19.1,28.5,25.5,22,31C15.5,36.6,7.7,41.2,-0.3,41.5C-8.3,41.9,-16.5,38,-22.7,32.4C-28.9,26.8,-33,19.4,-35.3,11.6C-37.6,3.8,-38.1,-4.4,-36.5,-12.7C-34.9,-21,-31.2,-29.4,-24.7,-34.4C-18.3,-39.4,-9.1,-41.1,-0.6,-40.3C8,-39.5,15.9,-36.2,22.7,-31.3Z" width="100%" height="100%" transform="translate(50 50)" stroke-width="0" style="transition: all 0.3s ease 0s;" stroke="url(#sw-gradient)"></path>
</svg>